<svg xmlns="http://www.w3.org/2000/svg" viewBox="0 0 512 512" xmlns:v="https://vecta.io/nano"><path d="M324.254 512H187.749a51.79 51.79 0 0 1-51.848-49.653l-8.723-201.605c-.646-14.922 5.172-29.403 15.958-39.728l56.059-53.676a22.48 22.48 0 0 0 6.9-16.159V35.702c0-7.958 6.453-14.411 14.411-14.411h70.989c7.958 0 14.411 6.453 14.411 14.411v115.475c0 6.07 2.515 11.959 6.9 16.159l56.06 53.678c10.785 10.327 16.602 24.806 15.957 39.726l-1.578 36.463c-.344 7.952-7.109 14.15-15.02 13.774-7.952-.343-14.118-7.068-13.774-15.02l1.578-36.462c.285-6.633-2.3-13.072-7.096-17.663l-56.061-53.679c-10.034-9.606-15.788-23.084-15.788-36.975V50.113h-42.168v101.064a51.43 51.43 0 0 1-15.788 36.975l-56.06 53.678a23.08 23.08 0 0 0-7.097 17.666l8.723 201.604a23.03 23.03 0 0 0 23.055 22.078h136.505a23.03 23.03 0 0 0 23.054-22.078l4.535-104.85c.342-7.952 7.057-14.158 15.02-13.774a14.41 14.41 0 0 1 13.774 15.02l-4.535 104.848C374.897 490.188 352.124 512 324.254 512z" fill="#2d527c"/><path d="M200.908 322.069l3.685 85.175c.445 10.289 8.916 18.401 19.214 18.401h64.388c10.298 0 18.768-8.112 19.214-18.401l3.685-85.175c.473-10.938-8.266-20.062-19.214-20.062h-71.757c-10.949-.002-19.689 9.124-19.215 20.062z" fill="#cee8fa"/><path d="M288.195 440.054h-64.389c-18.067 0-32.83-14.14-33.61-32.189l-3.685-85.172a33.8 33.8 0 0 1 9.311-24.723c6.315-6.593 15.17-10.374 24.299-10.374h71.757c9.129 0 17.984 3.781 24.299 10.374s9.706 15.604 9.311 24.724l-3.685 85.172a33.57 33.57 0 0 1-33.608 32.188zm-68.073-123.638c-1.791 0-2.951.931-3.483 1.486a4.8 4.8 0 0 0-1.334 3.542l3.685 85.175a4.81 4.81 0 0 0 4.817 4.613h64.389a4.81 4.81 0 0 0 4.817-4.611l3.685-85.174c.078-1.791-.804-2.989-1.334-3.545s-1.692-1.486-3.483-1.486h-71.759 0z" fill="#2d527c"/><path d="M288.871 61.902h-65.74a23.75 23.75 0 0 1-23.746-23.746h0a23.75 23.75 0 0 1 23.746-23.746h65.74a23.75 23.75 0 0 1 23.746 23.746h0a23.75 23.75 0 0 1-23.746 23.746z" fill="#cee8fa"/><path d="M288.871 76.313h-65.74c-21.039 0-38.156-17.117-38.156-38.156S202.092 0 223.131 0h65.74c21.039 0 38.156 17.117 38.156 38.158s-17.117 38.155-38.156 38.155zm-65.74-47.492a9.35 9.35 0 0 0-9.335 9.337 9.35 9.35 0 0 0 9.335 9.335h65.74a9.35 9.35 0 0 0 9.335-9.335 9.35 9.35 0 0 0-9.335-9.337h-65.74z" fill="#2d527c"/></svg>