<svg xmlns="http://www.w3.org/2000/svg" viewBox="0 0 496.2 496.2" xmlns:v="https://vecta.io/nano"><path d="M496.2 248.1C496.2 111.1 385.1 0 248.1 0S0 111.1 0 248.1s111.1 248.1 248.1 248.1 248.1-111.1 248.1-248.1z" fill="#32bea6"/><path d="M372.6 372.6c68.8-68.8 68.8-180.3 0-249-68.8-68.8-180.2-68.8-249 0s-68.8 180.2 0 249 180.2 68.8 249 0z" fill="#efb533"/><path d="M372.6 372.6c68.8-68.8 68.8-180.3 0-249l-249 249c68.8 68.8 180.2 68.8 249 0z" fill="#e5aa17"/><path d="M356 356c59.6-59.6 59.6-156.2 0-215.8s-156.2-59.6-215.8 0-59.6 156.2 0 215.8 156.2 59.6 215.8 0z" fill="#f4de7f"/><path d="M356 356c59.6-59.6 59.6-156.2 0-215.8L140.2 356c59.6 59.6 156.2 59.6 215.8 0z" fill="#f2d55a"/><path d="M306.6 195.4c0 11.2-12.7 19.2-13.5 18.2-9.5-11-25.7-19.2-42.2-19.2-16.7 0-26.9 7.5-26.9 18.7 0 13 13.7 16.5 32.9 20.7 22.9 5 53.1 14.2 53.1 46.9 0 25.2-17.5 42.6-46.6 47.1v9.7c0 11.5-4.5 17-14.5 17h-1.3c-10.5 0-14.2-5.2-14.2-17v-9.2c-30.2-3.2-47.4-17-47.4-30.9 0-10.7 12-18.5 13-17.5 9.5 11.5 27.9 20.9 47.4 20.9 17.7 0 27.9-7.5 27.9-18.7 0-13.7-15.5-17.5-33.7-21.7-21.9-4.7-50.9-13.5-50.9-46.4 0-23.9 17-41.1 43.9-46.1v-9.2c0-11.5 4.2-17 14.2-17h1.5c10.2 0 14.2 5.2 14.2 17v8.5c27.9 3 43.1 15.4 43.1 28.2z" fill="#e5aa17"/><path d="M274.4 282.1c0-13.7-15.5-17.5-33.7-21.7l-4.1-.9-28.7 28.7c10.1 7.4 24 12.7 38.5 12.7 17.8-.1 28-7.5 28-18.8zM356 140.2l-50.2 50.2c.5 1.6.8 3.3.8 5 0 11.2-12.7 19.2-13.5 18.2-1.6-1.8-3.4-3.6-5.3-5.2l-26.4 26.4c22.2 5.3 48.6 15.3 48.6 45.9 0 25.2-17.5 42.6-46.6 47.1v9.7c0 11.5-4.5 17-14.5 17h-1.3c-10.5 0-14.2-5.2-14.2-17v-9.2c-23-2.5-38.4-11-44.5-21.1L140.1 356c59.6 59.6 156.2 59.6 215.8 0 59.7-59.6 59.7-156.2.1-215.8z" fill="#f2d55a"/><path d="M199.1 279.9c-1-1-13 6.7-13 17.5 0 3.3 1 6.7 2.9 9.8l19-19c-3.5-2.6-6.5-5.4-8.9-8.3zm57.9-46.1c-19.2-4.2-32.9-7.7-32.9-20.7 0-11.2 10.2-18.7 26.9-18.7 13.7 0 27.3 5.7 36.9 14l17.9-17.9c-3.4-10.9-18-20.6-42.1-23.2v-8.5c0-11.7-4-17-14.2-17H248c-10 0-14.2 5.5-14.2 17v9.2c-26.9 5-43.9 22.2-43.9 46.1 0 30.9 25.5 40.5 46.8 45.5l24.8-24.8c-1.6-.4-3.1-.7-4.5-1z" fill="#efb533"/><path d="M293.1 213.6c.7 1 13.5-7 13.5-18.2 0-1.7-.3-3.3-.8-5l-17.9 17.9c1.9 1.7 3.6 3.4 5.2 5.3z" fill="#e5aa17"/></svg>