<svg xmlns="http://www.w3.org/2000/svg" viewBox="0 0 58 58" xmlns:v="https://vecta.io/nano"><path d="M46.393 7.08c9.568 9.568 8.46 26.188-2.475 37.123S16.363 56.246 6.795 46.678-1.665 20.49 9.27 9.555 36.825-2.488 46.393 7.08" fill="#c0c9d2"/><path d="M23.961 48.102a1 1 0 1 1-.004-2l1.884-.098c.552-.051 1.04.346 1.095.896a1 1 0 0 1-.896 1.094l-2.075.108h-.004zm-5.855-.896a1 1 0 0 1-.308-.049 18.51 18.51 0 0 1-1.954-.76 1 1 0 1 1 .831-1.819 16.45 16.45 0 0 0 1.74.676 1 1 0 0 1-.309 1.952m13.598-.606a1 1 0 0 1-.364-1.932l1.735-.766a1 1 0 1 1 .885 1.794l-1.893.835c-.12.046-.243.069-.363.069M11.38 43.115a.97.97 0 0 1-.666-.264 1.63 1.63 0 0 1-.092-.094 16.97 16.97 0 0 1-1.33-1.497 1 1 0 1 1 1.57-1.239 15.44 15.44 0 0 0 1.219 1.37c.386.386.402 1.02.024 1.413a1.01 1.01 0 0 1-.725.311m27.089-.585a1 1 0 0 1-.65-1.761l1.385-1.28a1.01 1.01 0 0 1 1.421-.006c.39.39.396 1.017.006 1.408l-.013.012-1.5 1.387a1 1 0 0 1-.649.24m5.11-6.019a.98.98 0 0 1-.514-.143 1 1 0 0 1-.342-1.372l.908-1.666c.244-.494.843-.698 1.339-.456a1 1 0 0 1 .456 1.339l-.989 1.814a1 1 0 0 1-.858.484m-36.293-.088a1 1 0 0 1-.95-.688c-.215-.658-.397-1.337-.541-2.02a1 1 0 0 1 1.957-.412c.129.612.292 1.221.485 1.808a1 1 0 0 1-.639 1.262c-.103.034-.209.05-.312.05m39.144-7.267a.97.97 0 0 1-.192-.019 1 1 0 0 1-.79-1.172l.274-1.868a1 1 0 1 1 1.991.197l-.302 2.053a1 1 0 0 1-.981.809m-39.962-.564a.8.8 0 0 1-.097-.005 1 1 0 0 1-.899-1.092l.299-2.054a1 1 0 1 1 1.964.38l-.272 1.868a1 1 0 0 1-.995.903m39.951-7.314a1 1 0 0 1-.978-.797c-.127-.611-.289-1.219-.481-1.808a1 1 0 0 1 .64-1.261 1 1 0 0 1 1.261.641c.215.658.396 1.338.538 2.021a1 1 0 0 1-.776 1.183c-.069.014-.137.021-.204.021m-37.774-.266c-.148 0-.298-.033-.44-.102a1 1 0 0 1-.457-1.338l.987-1.815a1 1 0 0 1 1.372-.343 1 1 0 0 1 .342 1.372l-.905 1.666a1 1 0 0 1-.899.56m4.606-6.442c-.254 0-.507-.094-.699-.285-.39-.39-.407-1.006-.016-1.397l.707.707-.689-.726 1.493-1.381a1 1 0 0 1 1.409.109 1 1 0 0 1-.11 1.41l-1.362 1.261c-.2.2-.467.302-.733.302m29.879-.429a1 1 0 0 1-.787-.382c-.381-.485-.797-.954-1.236-1.393-.391-.391-.412-1.045-.022-1.436s1.002-.412 1.393-.021l-.707.707.737-.676a17.66 17.66 0 0 1 1.408 1.583 1 1 0 0 1-.786 1.618M19.644 9.972a1 1 0 0 1-.445-1.896l1.892-.838a1 1 0 0 1 1.296.565 1 1 0 0 1-.566 1.296l-1.734.769a.99.99 0 0 1-.443.104M36.9 9.259c-.139 0-.279-.029-.413-.09-.563-.256-1.149-.483-1.742-.673a1 1 0 1 1 .615-1.903 18.37 18.37 0 0 1 1.953.755 1 1 0 0 1-.413 1.911m-9.684-1.498a1 1 0 0 1-.101-1.995l2.076-.111h.005a1 1 0 1 1 .006 2l-1.884.101a.87.87 0 0 1-.102.005" fill="#e9eff5"/><path d="M5.715 57c-2.757 0-5-2.243-5-5a1 1 0 1 1 2 0c0 1.654 1.346 3 3 3a1 1 0 1 1 0 2m50-50a1 1 0 0 1-1-1c0-2.206-1.346-4-3-4a1 1 0 1 1 0-2c2.757 0 5 2.691 5 6a1 1 0 0 1-1 1m-10 49a1 1 0 1 1 0-2c4.962 0 9-4.038 9-9a1 1 0 1 1 2 0c0 6.065-4.935 11-11 11m7 2a1 1 0 1 1 0-2c1.626 0 3-.916 3-2a1 1 0 1 1 2 0c0 2.206-2.243 4-5 4" fill="#c0c9d2"/><path d="M43.994 44.203C33.881 54.316 18.908 56.016 9.145 48.646a21.71 21.71 0 0 0 1.969 2.275c9.567 9.567 26.188 8.459 37.123-2.475s12.042-27.556 2.475-37.123a21.71 21.71 0 0 0-2.275-1.969c7.37 9.763 5.67 24.736-4.443 34.849" fill="#a0aab4"/><path d="M44.672 43.467l4.256 4.256 1.329-1.499-4.249-4.249-1.336 1.492m-3.701 3.37l4.258 4.258 1.544-1.284-4.251-4.251-1.551 1.277m6.85-7.292l4.255 4.255 1.095-1.733-4.246-4.246-1.104 1.724m2.544-4.527l4.26 4.259.822-2.005-4.254-4.254-.828 2M36.696 49.633l4.256 4.256 1.789-1.04-4.259-4.258-1.786 1.042m-4.937 2.134l4.255 4.255 2.068-.761-4.254-4.253-2.069.759m-7.128 1.358l4.259 4.259 2.561-.267-4.261-4.261-2.559.269m-7.867-.797l4.27 4.27a24.04 24.04 0 0 0 3.49.663l-4.268-4.269a24.07 24.07 0 0 1-3.492-.664m35.679-23.717l4.252 4.252.373-2.455-4.257-4.257-.368 2.46m4.735-2.336c-.057-1.079-.176-2.148-.37-3.198l-4.281-4.281a24.56 24.56 0 0 1 .409 3.237l4.242 4.242z" fill="#c0c9d2"/></svg>