<svg xmlns="http://www.w3.org/2000/svg" viewBox="0 0 58 58" xmlns:v="https://vecta.io/nano"><path d="M53 47H5L0 36V12h58v23.802z" fill="#546a79"/><path d="M53,47H5l3-25.005C8,19.789,9.789,18,11.995,18h34.009C48.211,18,50,19.789,50,21.995L53,47z" fill="#283238"/><path d="M11.995 18h34.009c1.359 0 2.555.682 3.277 1.718L58 12H0l8.718 7.718C9.44 18.682 10.636 18 11.995 18z" fill="#38454f"/><path d="M13 47v-5" fill="none" stroke="#cbd4d8" stroke-width="2" stroke-linecap="round" stroke-linejoin="round" stroke-miterlimit="10"/><circle cx="13" cy="39" r="3" fill="#dd352e"/><path d="M18 44h5v3h-5z" fill="#ebba16"/><path d="M45 47v-5" fill="none" stroke="#cbd4d8" stroke-width="2" stroke-linecap="round" stroke-linejoin="round" stroke-miterlimit="10"/><circle cx="45" cy="39" r="3" fill="#dd352e"/><path d="M35 44h5v3h-5z" fill="#ebba16"/><path d="M58,58H0v-7.447C0,48.591,1.591,47,3.553,47h50.895C56.409,47,58,48.591,58,50.553V58z" fill="#38454f"/><path d="M52 49h2v7h-2z" fill="#e7eced"/><circle cx="46.5" cy="52.5" r="2.5" fill="#23a24d"/><path d="M4 49h2v7H4z" fill="#e7eced"/><circle cx="11.5" cy="52.5" r="2.5" fill="#23a24d"/><path d="M12 27c.256 0 .512-.098.707-.293l4-4a1 1 0 0 0-1.414-1.414l-4 4a1 1 0 0 0 0 1.414c.195.195.451.293.707.293zm1.293 1.293l-2 2a1 1 0 0 0 0 1.414c.195.195.451.293.707.293s.512-.098.707-.293l2-2a1 1 0 0 0-1.414-1.414zm1.997-2.003c-.181.189-.29.439-.29.71 0 .26.109.52.29.71.18.18.439.29.71.29a1.03 1.03 0 0 0 .71-.29A1.05 1.05 0 0 0 17 27a1.03 1.03 0 0 0-.29-.71 1.05 1.05 0 0 0-1.42 0zm6.417-4.997a1 1 0 0 0-1.414 0l-3 3a1 1 0 0 0 0 1.414c.195.195.451.293.707.293s.512-.098.707-.293l3-3a1 1 0 0 0 0-1.414z" fill="#38454f"/><path d="M0 0h58v12H0z" fill="#434c6d"/><g fill="#e0e1e2"><path d="M4 9a1 1 0 0 1-1-1V4a1 1 0 1 1 2 0v4a1 1 0 0 1-1 1z"/><path d="M7 7H4a1 1 0 1 1 0-2h3a1 1 0 1 1 0 2z"/><path d="M7 10a1 1 0 0 1-1-1V3a1 1 0 1 1 2 0v6a1 1 0 0 1-1 1z"/><path d="M9 7H7a1 1 0 1 1 0-2h2a1 1 0 1 1 0 2z"/></g><path d="M14 7a1.05 1.05 0 0 1-.71-.29C13.109 6.52 13 6.26 13 6c0-.271.109-.521.29-.71a1.05 1.05 0 0 1 1.42 0A1.05 1.05 0 0 1 15 6a1.05 1.05 0 0 1-.29.71A1.05 1.05 0 0 1 14 7zm11-1c0-.55.45-1 1-1h0c.55 0 1 .45 1 1h0c0 .55-.45 1-1 1h0c-.55 0-1-.45-1-1zm-4 0c0-.55.45-1 1-1h0c.55 0 1 .45 1 1h0c0 .55-.45 1-1 1h0c-.55 0-1-.45-1-1zm-4 0c0-.55.45-1 1-1h0c.55 0 1 .45 1 1h0c0 .55-.45 1-1 1h0c-.55 0-1-.45-1-1zm13 1a1.05 1.05 0 0 1-.71-.29C29.109 6.52 29 6.26 29 6c0-.271.109-.521.29-.71a1.05 1.05 0 0 1 1.42 0A1.05 1.05 0 0 1 31 6a1.05 1.05 0 0 1-.29.71A1.05 1.05 0 0 1 30 7z" fill="#ebba16"/><circle cx="52" cy="6" r="3" fill="#d75e72"/></svg>