<svg xmlns="http://www.w3.org/2000/svg" width="512" height="512" fill="none" xmlns:v="https://vecta.io/nano"><circle cx="256" cy="256" r="256" fill="#2abb9b"/><g clip-path="url(#A)"><g fill="#313334"><path d="M346.417 212.167h-77.371v-50.763-1.808c.258-9.946.517-15.758 4.65-19.763a23.16 23.16 0 0 1 13.433-4.65l1.938-.129c5.79.115 11.517-1.217 16.662-3.875 3.459-2.014 6.454-4.734 8.791-7.983a28.49 28.49 0 0 0 4.772-10.875 55.56 55.56 0 0 0 1.162-16.921c-.059-1.696-.452-3.364-1.156-4.909s-1.705-2.935-2.947-4.092a12.92 12.92 0 0 0-9.266-3.464c-3.426.12-6.663 1.596-9.001 4.103a12.92 12.92 0 0 0-3.463 9.266c.284 3.276.154 6.574-.388 9.817-.163.945-.563 1.834-1.162 2.583a24.41 24.41 0 0 1-5.296.646l-2.325.129c-10.978.299-21.498 4.461-29.708 11.754a49.49 49.49 0 0 0-10.272 17.666c-2.157 6.539-2.926 13.456-2.257 20.309v1.68c-.13 7.233-.13 37.07 0 51.279h-77.63c-17.128 0-33.555 6.804-45.667 18.916A64.58 64.58 0 0 0 101 276.75v51.667a64.58 64.58 0 0 0 4.916 24.715c3.246 7.835 8.003 14.955 14 20.952C132.028 386.196 148.455 393 165.583 393h180.834a64.58 64.58 0 0 0 24.715-4.916c7.835-3.246 14.955-8.003 20.952-14s10.754-13.117 14-20.952A64.58 64.58 0 0 0 411 328.417V276.75a64.58 64.58 0 0 0-4.916-24.715c-3.246-7.836-8.003-14.955-14-20.952a64.58 64.58 0 0 0-45.667-18.916h0zm38.75 116.25c-.031 10.267-4.123 20.106-11.384 27.366a38.87 38.87 0 0 1-27.366 11.384H165.583c-10.267-.031-20.106-4.123-27.366-11.384a38.87 38.87 0 0 1-11.384-27.366V276.75c.031-10.268 4.123-20.106 11.384-27.367A38.87 38.87 0 0 1 165.583 238h180.834a38.87 38.87 0 0 1 27.366 11.383c7.261 7.261 11.353 17.099 11.384 27.367v51.667zm-155-25.963c0 3.426-1.361 6.711-3.784 9.134s-5.707 3.783-9.133 3.783h-12.917v12.916a12.92 12.92 0 0 1-12.916 12.917 12.92 12.92 0 0 1-12.917-12.917v-12.916h-12.917a12.92 12.92 0 0 1-12.916-12.917c0-3.426 1.361-6.711 3.783-9.133a12.92 12.92 0 0 1 9.133-3.784H178.5v-12.916a12.92 12.92 0 0 1 12.917-12.917 12.92 12.92 0 0 1 12.916 12.917v12.916h12.917c3.426 0 6.711 1.361 9.133 3.784a12.92 12.92 0 0 1 3.784 9.133zm116.25-12.787a12.92 12.92 0 0 0 12.916-12.917 12.92 12.92 0 0 0-12.916-12.917A12.92 12.92 0 0 0 333.5 276.75a12.92 12.92 0 0 0 12.917 12.917zm0 51.666a12.92 12.92 0 0 0 12.916-12.916 12.92 12.92 0 0 0-12.916-12.917 12.92 12.92 0 0 0-12.917 12.917 12.92 12.92 0 0 0 12.917 12.916zm-51.667-51.666a12.92 12.92 0 0 0 12.917-12.917 12.92 12.92 0 0 0-12.917-12.917 12.92 12.92 0 0 0-12.917 12.917 12.92 12.92 0 0 0 12.917 12.917zm0 51.666a12.92 12.92 0 0 0 12.917-12.916A12.92 12.92 0 0 0 294.75 315.5a12.92 12.92 0 0 0-12.917 12.917 12.92 12.92 0 0 0 12.917 12.916z"/></g><path d="M241.573 374.318h2.376l2.826 9.81h-.54l2.79-9.036h1.44l2.898 8.892h-.486l2.97-9.666h2.394L254.227 386h-2.232l-2.286-6.894h.198L247.621 386h-2.232l-3.816-11.682zm22.793 11.934c-.954 0-1.815-.252-2.583-.756s-1.38-1.206-1.836-2.106c-.45-.906-.675-1.962-.675-3.168 0-.954.138-1.809.414-2.565.282-.756.672-1.401 1.17-1.935a4.94 4.94 0 0 1 1.755-1.215c.672-.282 1.401-.423 2.187-.423 1.092 0 2.007.237 2.745.711.744.474 1.323 1.221 1.737 2.241l-2.178.504c-.306-.498-.66-.876-1.062-1.134-.396-.264-.846-.396-1.35-.396a2.63 2.63 0 0 0-1.575.513c-.474.336-.852.819-1.134 1.449s-.423 1.38-.423 2.25c0 .816.123 1.53.369 2.142.252.612.603 1.089 1.053 1.431s.972.513 1.566.513c.504 0 .954-.111 1.35-.333.402-.228.717-.552.945-.972.234-.42.351-.927.351-1.521h.468c0 .972-.117 1.815-.351 2.529-.228.714-.585 1.266-1.071 1.656s-1.11.585-1.872.585zm3.132-.252l-.306-2.574v-2.016l-2.628-.054v-1.35h4.662V386h-1.728z" fill="#b6b6b6"/></g><defs><clipPath id="A"><path fill="#fff" transform="translate(101 83)" d="M0 0h310v310H0z"/></clipPath></defs></svg>