<svg xmlns="http://www.w3.org/2000/svg" viewBox="0 0 512 512" xmlns:v="https://vecta.io/nano"><circle cx="256" cy="256" r="256" fill="#1a468d"/><path d="M150.2,368.6l141,141c115.2-15.8,205.9-108.3,219.1-224.2L367.9,142.9L150.2,368.6z" fill="#050b55"/><path d="M368.5 337.4l-82.8-82.8 82.8-82.8c7.8-7.8 7.8-20.5 0-28.3s-20.5-7.8-28.3 0l-82.8 82.8-82.8-82.8c-7.8-7.8-20.5-7.8-28.3 0s-7.8 20.5 0 28.3l82.8 82.8-82.8 82.8c-7.8 7.8-7.8 20.5 0 28.3 3.9 3.9 9 5.9 14.1 5.9s10.2-2 14.1-5.9l82.8-82.8 82.8 82.8c3.9 3.9 9 5.9 14.1 5.9s10.2-2 14.1-5.9c8-7.8 8-20.5.2-28.3z" fill="#fff"/></svg>